<svg width="2044" height="1291" viewBox="0 0 2044 1291" fill="none" xmlns="http://www.w3.org/2000/svg">
<g id="Xbox-Logo-No-Effects">
<g id="Xbox-X2">
<g filter="url(#filter0_i_1_69)">
<path d="M1368 681H1323L1441 842L1312 1019H1357L1464.5 873.5L1572 1019H1617L1488 842L1606 681H1561L1464.5 812L1368 681Z" fill="white"/>
</g>
<path d="M1368 681H1323L1441 842L1312 1019H1357L1464.5 873.5L1572 1019H1617L1488 842L1606 681H1561L1464.5 812L1368 681Z" stroke="white"/>
</g>
<g id="Xbox-C">
<g filter="url(#filter1_i_1_69)">
<path fill-rule="evenodd" clip-rule="evenodd" d="M1024 843C1024 749 1081.5 667 1184 667C1286.5 667 1345.68 754.004 1346.5 843C1347.5 951.5 1279 1019 1184 1019C1082 1019 1024 938.5 1024 843ZM1184 703C1117.5 703 1063 754.5 1063 843C1063 928 1114.5 983 1184 983C1263 983 1308 920 1308 843C1308 755 1253.5 703 1184 703Z" fill="white"/>
</g>
<path fill-rule="evenodd" clip-rule="evenodd" d="M1024 843C1024 749 1081.5 667 1184 667C1286.5 667 1345.68 754.004 1346.5 843C1347.5 951.5 1279 1019 1184 1019C1082 1019 1024 938.5 1024 843ZM1184 703C1117.5 703 1063 754.5 1063 843C1063 928 1114.5 983 1184 983C1263 983 1308 920 1308 843C1308 755 1253.5 703 1184 703Z" stroke="white"/>
</g>
<g id="Xbox-B">
<g filter="url(#filter2_i_1_69)">
<path fill-rule="evenodd" clip-rule="evenodd" d="M748 861V1018.5H885C945 1018.5 1005 991 1007.5 921.5C1008.69 888.5 989 857.5 956 840.5C984 821 996.912 797 995.5 773C991 696.5 933.5 681 885 681H748V827H702L678 861H748ZM786 861H885C941.5 861 968.91 882.497 967.5 921.5C966 963 937 982.5 885 982.5H786V861ZM786 717V827H885C932 827 955.477 806 957 773C958.5 740.5 935 717 885 717H786Z" fill="white"/>
</g>
<path fill-rule="evenodd" clip-rule="evenodd" d="M748 861V1018.5H885C945 1018.5 1005 991 1007.5 921.5C1008.69 888.5 989 857.5 956 840.5C984 821 996.912 797 995.5 773C991 696.5 933.5 681 885 681H748V827H702L678 861H748ZM786 861H885C941.5 861 968.91 882.497 967.5 921.5C966 963 937 982.5 885 982.5H786V861ZM786 717V827H885C932 827 955.477 806 957 773C958.5 740.5 935 717 885 717H786Z" stroke="white"/>
</g>
<g id="Xbox-X1">
<g filter="url(#filter3_i_1_69)">
<path d="M482 681H437L555 842L426 1019H471L578.5 873.5L686 1019H731L602 842L720 681H675L578.5 812L482 681Z" fill="white"/>
</g>
<path d="M482 681H437L555 842L426 1019H471L578.5 873.5L686 1019H731L602 842L720 681H675L578.5 812L482 681Z" stroke="white"/>
</g>
<g id="Xbox-Bola">
<g filter="url(#filter4_i_1_69)">
<path d="M1075.5 375C1146 467.5 1180 534 1172.5 571.5C1198.5 541.5 1211 492.5 1211 459.5C1211 396.5 1166 325 1150 325C1137 325 1108.23 342.798 1075.5 375Z" fill="white"/>
<path d="M875.5 571.5C868 534 902 467.5 972.5 375C939.773 342.798 911 325 898 325C882 325 837 396.5 837 459.5C837 492.5 849.5 541.5 875.5 571.5Z" fill="white"/>
<path d="M1023.5 424C974.5 460.5 896.5 542 896.5 585.5C896.5 612.005 966 646.5 1023.5 646.5C1084.5 646.5 1154.12 608 1151 585.5C1144.28 537 1074 462 1023.5 424Z" fill="white"/>
<path d="M1119 299C1090.36 281.255 1064 273 1022 273C983.5 273 956.868 281.524 929 299C968.5 299 979.786 306.539 1023 326C1069.5 305 1084 299 1119 299Z" fill="white"/>
</g>
<path d="M1075.5 375C1146 467.5 1180 534 1172.5 571.5C1198.5 541.5 1211 492.5 1211 459.5C1211 396.5 1166 325 1150 325C1137 325 1108.23 342.798 1075.5 375Z" stroke="white"/>
<path d="M875.5 571.5C868 534 902 467.5 972.5 375C939.773 342.798 911 325 898 325C882 325 837 396.5 837 459.5C837 492.5 849.5 541.5 875.5 571.5Z" stroke="white"/>
<path d="M1023.5 424C974.5 460.5 896.5 542 896.5 585.5C896.5 612.005 966 646.5 1023.5 646.5C1084.5 646.5 1154.12 608 1151 585.5C1144.28 537 1074 462 1023.5 424Z" stroke="white"/>
<path d="M1119 299C1090.36 281.255 1064 273 1022 273C983.5 273 956.868 281.524 929 299C968.5 299 979.786 306.539 1023 326C1069.5 305 1084 299 1119 299Z" stroke="white"/>
</g>
</g>
<defs>
<filter id="filter0_i_1_69" x="1311.02" y="677.5" width="306.966" height="342" filterUnits="userSpaceOnUse" color-interpolation-filters="sRGB">
<feFlood flood-opacity="0" result="BackgroundImageFix"/>
<feBlend mode="normal" in="SourceGraphic" in2="BackgroundImageFix" result="shape"/>
<feColorMatrix in="SourceAlpha" type="matrix" values="0 0 0 0 0 0 0 0 0 0 0 0 0 0 0 0 0 0 127 0" result="hardAlpha"/>
<feOffset dy="-3"/>
<feGaussianBlur stdDeviation="3.5"/>
<feComposite in2="hardAlpha" operator="arithmetic" k2="-1" k3="1"/>
<feColorMatrix type="matrix" values="0 0 0 0 0.729412 0 0 0 0 0.729412 0 0 0 0 0.729412 0 0 0 0.25 0"/>
<feBlend mode="normal" in2="shape" result="effect1_innerShadow_1_69"/>
</filter>
<filter id="filter1_i_1_69" x="1023.5" y="663.5" width="323.511" height="356" filterUnits="userSpaceOnUse" color-interpolation-filters="sRGB">
<feFlood flood-opacity="0" result="BackgroundImageFix"/>
<feBlend mode="normal" in="SourceGraphic" in2="BackgroundImageFix" result="shape"/>
<feColorMatrix in="SourceAlpha" type="matrix" values="0 0 0 0 0 0 0 0 0 0 0 0 0 0 0 0 0 0 127 0" result="hardAlpha"/>
<feOffset dy="-3"/>
<feGaussianBlur stdDeviation="3.5"/>
<feComposite in2="hardAlpha" operator="arithmetic" k2="-1" k3="1"/>
<feColorMatrix type="matrix" values="0 0 0 0 0.729412 0 0 0 0 0.729412 0 0 0 0 0.729412 0 0 0 0.25 0"/>
<feBlend mode="normal" in2="shape" result="effect1_innerShadow_1_69"/>
</filter>
<filter id="filter2_i_1_69" x="677.035" y="677.5" width="331.016" height="341.5" filterUnits="userSpaceOnUse" color-interpolation-filters="sRGB">
<feFlood flood-opacity="0" result="BackgroundImageFix"/>
<feBlend mode="normal" in="SourceGraphic" in2="BackgroundImageFix" result="shape"/>
<feColorMatrix in="SourceAlpha" type="matrix" values="0 0 0 0 0 0 0 0 0 0 0 0 0 0 0 0 0 0 127 0" result="hardAlpha"/>
<feOffset dy="-3"/>
<feGaussianBlur stdDeviation="3.5"/>
<feComposite in2="hardAlpha" operator="arithmetic" k2="-1" k3="1"/>
<feColorMatrix type="matrix" values="0 0 0 0 0.729412 0 0 0 0 0.729412 0 0 0 0 0.729412 0 0 0 0.25 0"/>
<feBlend mode="normal" in2="shape" result="effect1_innerShadow_1_69"/>
</filter>
<filter id="filter3_i_1_69" x="425.017" y="677.5" width="306.966" height="342" filterUnits="userSpaceOnUse" color-interpolation-filters="sRGB">
<feFlood flood-opacity="0" result="BackgroundImageFix"/>
<feBlend mode="normal" in="SourceGraphic" in2="BackgroundImageFix" result="shape"/>
<feColorMatrix in="SourceAlpha" type="matrix" values="0 0 0 0 0 0 0 0 0 0 0 0 0 0 0 0 0 0 127 0" result="hardAlpha"/>
<feOffset dy="-3"/>
<feGaussianBlur stdDeviation="3.5"/>
<feComposite in2="hardAlpha" operator="arithmetic" k2="-1" k3="1"/>
<feColorMatrix type="matrix" values="0 0 0 0 0.729412 0 0 0 0 0.729412 0 0 0 0 0.729412 0 0 0 0.25 0"/>
<feBlend mode="normal" in2="shape" result="effect1_innerShadow_1_69"/>
</filter>
<filter id="filter4_i_1_69" x="836.5" y="269.5" width="375" height="377.5" filterUnits="userSpaceOnUse" color-interpolation-filters="sRGB">
<feFlood flood-opacity="0" result="BackgroundImageFix"/>
<feBlend mode="normal" in="SourceGraphic" in2="BackgroundImageFix" result="shape"/>
<feColorMatrix in="SourceAlpha" type="matrix" values="0 0 0 0 0 0 0 0 0 0 0 0 0 0 0 0 0 0 127 0" result="hardAlpha"/>
<feOffset dy="-3"/>
<feGaussianBlur stdDeviation="3.5"/>
<feComposite in2="hardAlpha" operator="arithmetic" k2="-1" k3="1"/>
<feColorMatrix type="matrix" values="0 0 0 0 0.729412 0 0 0 0 0.729412 0 0 0 0 0.729412 0 0 0 0.25 0"/>
<feBlend mode="normal" in2="shape" result="effect1_innerShadow_1_69"/>
</filter>
</defs>
</svg>
