<svg width="609" height="190" viewBox="0 0 609 190" fill="none" xmlns="http://www.w3.org/2000/svg">
<g id="Netbr-Logo-No-Effects">
<path id="Netbr-Logo-Baixo" d="M206.5 70L198 78L212 118H252L260 109H221L206.5 70Z" fill="white" stroke="white"/>
<path id="Netbr-Logo-Cima" d="M243 76H218L220 84H235L241 101.5H251L243 76Z" fill="white" stroke="white"/>
<path id="Netbr-N" d="M268 96C268 93.5 271.78 84 284.5 84C299.735 84 301 94 301 95V118H293V98C293 95 289.5 91.5 284.5 91.5C281 91.5 276 94 276 98V118H268V96Z" fill="white" stroke="white"/>
<path id="Netbr-E" fill-rule="evenodd" clip-rule="evenodd" d="M304 101.5C304 113.5 312.5 118 317.5 118H335.5V111H316.5C314.5 111 311.5 108.5 311.5 105H335.5V100C335.5 89.5 329 84 320.5 84C312 84 304 89 304 101.5ZM328.5 98H311.5C312.927 93.2385 313.5 91.5 320 91.5C326.5 91.5 327.307 94.132 328.5 98Z" fill="white" stroke="white"/>
<path id="Netbr-T" d="M341 104.5V71H347V84.5H360V91H347V104.5C347 108 351.5 112 358 112V118.5C349.5 118.5 341 114.5 341 104.5Z" fill="white" stroke="white"/>
<path id="Netbr-B" fill-rule="evenodd" clip-rule="evenodd" d="M360 71H367V85H377C384.5 85 392 91.5 392 103C392 113 387 119 376 119C367 119 360 112 360 106V71ZM374.5 91.5H366.5V102.5C366.5 110.5 372 112.5 376 112.5C380.763 112.5 385.5 110.5 385.5 103C385.5 98.5 382.5 91.5 374.5 91.5Z" fill="white" stroke="white"/>
<path id="Netbr-R" d="M401 118.5H395V100C395 89.5 402 85 410 85V91C406 91 400.5 95 401 100V118.5Z" fill="white" stroke="white"/>
</g>
</svg>
